<svg width="40" height="40" viewBox="0 0 40 40" fill="none" xmlns="http://www.w3.org/2000/svg">
<g clip-path="url(#clip0_41_100)">
<path fill-rule="evenodd" clip-rule="evenodd" d="M35.9099 8.51844C36.3786 8.98726 36.6418 9.62303 36.6418 10.2859C36.6418 10.9489 36.3786 11.5846 35.9099 12.0534L17.1715 30.7918C16.9239 31.0395 16.6299 31.2359 16.3063 31.37C15.9828 31.504 15.636 31.573 15.2857 31.573C14.9355 31.573 14.5887 31.504 14.2651 31.37C13.9415 31.2359 13.6475 31.0395 13.3999 30.7918L4.08988 21.4834C3.85111 21.2528 3.66065 20.977 3.52963 20.672C3.3986 20.3669 3.32964 20.0389 3.32675 19.7069C3.32387 19.375 3.38712 19.0458 3.51283 18.7386C3.63853 18.4313 3.82416 18.1522 4.05889 17.9175C4.29363 17.6827 4.57275 17.4971 4.88 17.3714C5.18724 17.2457 5.51644 17.1824 5.84838 17.1853C6.18033 17.1882 6.50838 17.2572 6.81339 17.3882C7.1184 17.5192 7.39426 17.7097 7.62488 17.9484L15.2849 25.6084L32.3732 8.51844C32.6054 8.28613 32.8811 8.10184 33.1845 7.9761C33.4879 7.85036 33.8131 7.78564 34.1416 7.78564C34.47 7.78564 34.7952 7.85036 35.0986 7.9761C35.402 8.10184 35.6777 8.28613 35.9099 8.51844Z" fill="#CAA709"/>
</g>
<defs>
<clipPath id="clip0_41_100">
<rect width="40" height="40" fill="white"/>
</clipPath>
</defs>
</svg>
