<svg width="606" height="61" viewBox="0 0 606 61" fill="none" xmlns="http://www.w3.org/2000/svg">
<path d="M0 49.0234H8.4375L34.1406 6.64062H42.5781L67.8125 49.0234H77.9688V55.2734H47.8906V49.0234H57.3438L51.6797 39.0625H24.2969L18.7891 49.0234H27.8125V55.2734H0V49.0234ZM48.7891 8.63281L71.4062 46.6797H69.6094L46.9922 8.63281H48.7891ZM48.8672 34.1797L37.8125 14.7656L27.0312 34.1797H48.8672ZM38.5156 19.2188L39.4531 20.9375L33.1641 31.8359H31.25L38.5156 19.2188ZM25.8203 41.7969H51.3281L52.0312 43.2812H26.9922L25.1562 46.6797H23.1641L25.8203 41.7969ZM80.7422 58.0078V51.1719H82.3828V59.4922H49.5703V58.0078H80.7422ZM30.625 58.0078V51.1719H32.1875V59.4922H1.71875V58.0078H30.625Z" fill="#F0CD31"/>
<path d="M88.6328 49.0234H98.8281V12.8906H88.0469V6.64062H118.867C121.862 6.64062 124.557 6.69271 126.953 6.79688C129.375 6.90104 131.562 7.13542 133.516 7.5C135.807 7.94271 137.76 8.58073 139.375 9.41406C140.99 10.2214 142.292 11.2109 143.281 12.3828C144.297 13.5547 145.026 14.8828 145.469 16.3672C145.938 17.8516 146.172 19.4792 146.172 21.25C146.172 22.7083 145.911 24.1406 145.391 25.5469C144.896 26.9531 144.154 28.2812 143.164 29.5312C142.174 30.7552 140.924 31.862 139.414 32.8516C137.93 33.8411 136.198 34.6484 134.219 35.2734C132.109 35.8984 129.766 36.3021 127.188 36.4844C124.635 36.6406 121.862 36.7188 118.867 36.7188H107.695V49.0234H121.602V55.2734H88.6328V49.0234ZM110.43 39.4531H116.68C118.971 39.4531 120.951 39.4401 122.617 39.4141C124.284 39.388 125.768 39.3359 127.07 39.2578C128.398 39.1536 129.583 39.0234 130.625 38.8672C131.693 38.6849 132.76 38.4635 133.828 38.2031C136.224 37.6302 138.359 36.8229 140.234 35.7812C142.109 34.7135 143.685 33.4505 144.961 31.9922C146.263 30.5078 147.253 28.8411 147.93 26.9922C148.607 25.1172 148.945 23.0859 148.945 20.8984C148.945 18.2161 148.424 15.9115 147.383 13.9844C146.367 12.0312 144.766 10.2734 142.578 8.71094C143.906 9.28385 145.078 10.026 146.094 10.9375C147.109 11.8229 147.956 12.8125 148.633 13.9062C149.31 15 149.818 16.1458 150.156 17.3438C150.495 18.5417 150.664 19.7266 150.664 20.8984C150.664 23.2161 150.286 25.3906 149.531 27.4219C148.776 29.4531 147.669 31.2891 146.211 32.9297C144.779 34.5703 142.995 35.9896 140.859 37.1875C138.75 38.3594 136.315 39.2448 133.555 39.8438C132.721 40.026 131.784 40.1953 130.742 40.3516C129.701 40.4818 128.503 40.599 127.148 40.7031C125.794 40.7812 124.258 40.8464 122.539 40.8984C120.82 40.9245 118.867 40.9375 116.68 40.9375H111.992V46.6797H110.43V39.4531ZM120.547 30.4688C122.76 30.4688 124.688 30.4167 126.328 30.3125C127.969 30.2083 129.414 29.974 130.664 29.6094C132.904 28.9844 134.453 27.9948 135.312 26.6406C136.198 25.2865 136.641 23.5938 136.641 21.5625C136.641 20 136.354 18.6719 135.781 17.5781C135.208 16.4844 134.284 15.5859 133.008 14.8828C131.732 14.1797 130.065 13.6719 128.008 13.3594C125.977 13.0469 123.49 12.8906 120.547 12.8906H107.695V30.4688H120.547ZM110.43 15.625H120.273C124.258 15.625 127.292 15.8464 129.375 16.2891C131.484 16.7318 132.865 17.5 133.516 18.5938C132.995 18.3594 132.37 18.151 131.641 17.9688C130.938 17.7865 130.065 17.6302 129.023 17.5C127.982 17.3698 126.745 17.2786 125.312 17.2266C123.906 17.1484 122.227 17.1094 120.273 17.1094H111.992V28.125H110.43V15.625ZM90.1562 15.625H96.3672V17.1094H90.1562V15.625ZM124.414 58.0078V51.2109H125.977V59.4922H91.1328V58.0078H124.414Z" fill="#F0CD31"/>
<path d="M156.523 37.0312C156.523 34.1927 157.135 31.5234 158.359 29.0234C159.583 26.4974 161.289 24.3099 163.477 22.4609C165.69 20.5859 168.333 19.1146 171.406 18.0469C174.479 16.9531 177.852 16.4062 181.523 16.4062C185.378 16.4062 188.815 16.9271 191.836 17.9688C194.883 18.9844 197.448 20.4036 199.531 22.2266C201.641 24.0495 203.242 26.2109 204.336 28.7109C205.456 31.2109 206.016 33.9323 206.016 36.875C206.016 39.7135 205.404 42.3307 204.18 44.7266C202.982 47.1224 201.263 49.1927 199.023 50.9375C196.81 52.6562 194.141 54.0104 191.016 55C187.917 55.9635 184.453 56.4453 180.625 56.4453C177.005 56.4453 173.711 55.9115 170.742 54.8438C167.799 53.75 165.273 52.3047 163.164 50.5078C161.055 48.7109 159.414 46.6536 158.242 44.3359C157.096 41.9922 156.523 39.5573 156.523 37.0312ZM162.656 53.4766C165.182 55.2995 167.969 56.7057 171.016 57.6953C174.089 58.6849 177.552 59.1797 181.406 59.1797C185 59.1797 188.451 58.6849 191.758 57.6953C195.065 56.7318 197.982 55.2995 200.508 53.3984C203.034 51.4974 205.052 49.1667 206.562 46.4062C208.073 43.6198 208.828 40.4427 208.828 36.875C208.828 35.1302 208.581 33.3724 208.086 31.6016C207.617 29.8047 206.94 28.0859 206.055 26.4453C205.195 24.8047 204.141 23.2812 202.891 21.875C201.641 20.4427 200.247 19.2318 198.711 18.2422C200.456 19.0234 202.044 20.0521 203.477 21.3281C204.935 22.6042 206.172 24.0625 207.188 25.7031C208.203 27.3177 208.984 29.0755 209.531 30.9766C210.104 32.8776 210.391 34.8438 210.391 36.875C210.391 39.4271 210.026 41.7969 209.297 43.9844C208.568 46.1458 207.552 48.112 206.25 49.8828C204.974 51.6276 203.438 53.1771 201.641 54.5312C199.87 55.8854 197.917 57.0052 195.781 57.8906C193.646 58.8021 191.367 59.4922 188.945 59.9609C186.549 60.4297 184.102 60.6641 181.602 60.6641C179.518 60.6641 177.526 60.4948 175.625 60.1562C173.724 59.8438 171.953 59.375 170.312 58.75C168.698 58.151 167.24 57.4089 165.938 56.5234C164.635 55.638 163.542 54.6224 162.656 53.4766ZM165.195 36.875C165.195 38.8802 165.573 40.7161 166.328 42.3828C167.109 44.0234 168.203 45.4427 169.609 46.6406C171.016 47.8125 172.695 48.724 174.648 49.375C176.628 50.026 178.815 50.3516 181.211 50.3516C183.633 50.3516 185.833 50.026 187.812 49.375C189.792 48.6979 191.497 47.7734 192.93 46.6016C194.362 45.4036 195.469 43.9844 196.25 42.3438C197.031 40.6771 197.422 38.8542 197.422 36.875C197.422 34.9219 197.031 33.0859 196.25 31.3672C195.469 29.6224 194.375 28.099 192.969 26.7969C191.562 25.4688 189.87 24.4271 187.891 23.6719C185.938 22.8906 183.776 22.5 181.406 22.5C178.932 22.5 176.693 22.8776 174.688 23.6328C172.708 24.362 171.016 25.3776 169.609 26.6797C168.203 27.9557 167.109 29.4661 166.328 31.2109C165.573 32.9557 165.195 34.8438 165.195 36.875ZM167.93 37.0312C167.93 35.3906 168.255 33.8542 168.906 32.4219C169.557 30.9635 170.469 29.7135 171.641 28.6719C172.839 27.6042 174.258 26.7708 175.898 26.1719C177.565 25.5469 179.401 25.2344 181.406 25.2344C182.682 25.2344 183.919 25.3776 185.117 25.6641C186.315 25.9245 187.422 26.3151 188.438 26.8359C189.453 27.3568 190.352 27.9948 191.133 28.75C191.914 29.4792 192.539 30.3125 193.008 31.25C191.289 29.6875 189.492 28.5417 187.617 27.8125C185.768 27.0833 183.672 26.7188 181.328 26.7188C179.635 26.7188 178.073 26.9922 176.641 27.5391C175.208 28.0859 173.958 28.8281 172.891 29.7656C171.823 30.7031 170.99 31.7969 170.391 33.0469C169.792 34.2969 169.492 35.625 169.492 37.0312C169.492 38.2031 169.635 39.2969 169.922 40.3125C170.208 41.3281 170.69 42.2786 171.367 43.1641C172.07 44.0234 172.995 44.8047 174.141 45.5078C175.286 46.2109 176.719 46.8359 178.438 47.3828C176.875 47.2786 175.443 46.9531 174.141 46.4062C172.865 45.8333 171.758 45.0911 170.82 44.1797C169.909 43.2682 169.193 42.2005 168.672 40.9766C168.177 39.7526 167.93 38.4375 167.93 37.0312Z" fill="#F3F3F3"/>
<path d="M220.586 49.4141H229.18V24.2188H220.586V17.5781H237.578V24.1016C238.385 23.0599 239.349 22.0703 240.469 21.1328C241.615 20.1953 242.904 19.375 244.336 18.6719C245.768 17.9688 247.331 17.4219 249.023 17.0312C250.716 16.6146 252.526 16.4062 254.453 16.4062C255.026 16.4062 255.742 16.4323 256.602 16.4844C257.461 16.5104 258.281 16.5885 259.062 16.7188V24.375C258.151 24.1667 257.253 24.0234 256.367 23.9453C255.482 23.8672 254.622 23.8281 253.789 23.8281C251.706 23.8281 249.727 24.1667 247.852 24.8438C246.003 25.4948 244.349 26.4583 242.891 27.7344C241.432 28.9844 240.234 30.5208 239.297 32.3438C238.359 34.1667 237.786 36.25 237.578 38.5938V49.4141H251.641V55.2734H220.586V49.4141ZM240.312 42.1094C240.312 39.6615 240.625 37.474 241.25 35.5469C241.875 33.6198 242.76 31.9922 243.906 30.6641C245.078 29.3359 246.497 28.3203 248.164 27.6172C249.831 26.9141 251.706 26.5625 253.789 26.5625C254.232 26.5625 254.792 26.6016 255.469 26.6797C256.146 26.7318 256.849 26.8229 257.578 26.9531C258.333 27.0833 259.089 27.2526 259.844 27.4609C260.599 27.6432 261.276 27.8646 261.875 28.125V18.9062H263.438V30.0781C262.708 29.7656 261.914 29.4922 261.055 29.2578C260.221 28.9974 259.362 28.776 258.477 28.5938C257.617 28.4115 256.784 28.2812 255.977 28.2031C255.169 28.099 254.44 28.0469 253.789 28.0469C251.888 28.0469 250.195 28.3594 248.711 28.9844C247.253 29.6094 246.016 30.5078 245 31.6797C243.984 32.8516 243.203 34.2839 242.656 35.9766C242.135 37.6693 241.875 39.5833 241.875 41.7188V47.0703H240.312V42.1094ZM222.93 26.9531H227.539V28.4375H222.93V26.9531ZM254.453 58.0078V51.6016H256.016V59.4922H222.93V58.0078H254.453Z" fill="#F3F3F3"/>
<path d="M277.852 24.2188H269.258V17.5781H277.852V9.6875L286.25 6.17188V17.5781H305.664V24.2188H286.25V42.8516C286.25 44.8047 286.862 46.263 288.086 47.2266C289.31 48.1641 290.977 48.6328 293.086 48.6328H304.102V55.2734H293.086C290.977 55.2734 288.997 55.0521 287.148 54.6094C285.299 54.1406 283.685 53.3724 282.305 52.3047C280.924 51.2109 279.831 49.7786 279.023 48.0078C278.242 46.2109 277.852 43.9714 277.852 41.2891V24.2188ZM289.062 8.32031L290.625 7.61719V15.2344H289.062V8.32031ZM288.984 26.5234H308.477V19.3359H310.039V28.0078H290.547V46.0156C289.661 45.7812 289.141 45.2604 288.984 44.4531V26.5234ZM271.602 26.9531H276.289V28.4375H271.602V26.9531ZM277.617 51.9141C278.451 53.0859 279.375 54.0625 280.391 54.8438C281.432 55.625 282.591 56.25 283.867 56.7188C285.143 57.1875 286.536 57.513 288.047 57.6953C289.557 57.9036 291.211 58.0078 293.008 58.0078H306.914V50.3906H308.477V59.4922H292.812C290.807 59.4922 288.984 59.362 287.344 59.1016C285.703 58.8411 284.245 58.4115 282.969 57.8125C281.719 57.2396 280.638 56.4583 279.727 55.4688C278.841 54.5052 278.138 53.3203 277.617 51.9141Z" fill="#F3F3F3"/>
<path d="M319.375 49.4141H327.969V28.5156H319.375V22.6562H327.969V16.9922C327.969 14.4922 328.372 12.2005 329.18 10.1172C330.013 8.03385 331.185 6.25 332.695 4.76562C334.206 3.25521 336.042 2.08333 338.203 1.25C340.365 0.416667 342.799 0 345.508 0C347.878 0 349.974 0.299479 351.797 0.898438C353.62 1.47135 355.169 2.27865 356.445 3.32031C357.747 4.33594 358.789 5.54688 359.57 6.95312C360.352 8.35938 360.898 9.89583 361.211 11.5625H353.164C352.93 11.0156 352.63 10.4818 352.266 9.96094C351.901 9.41406 351.419 8.93229 350.82 8.51562C350.221 8.07292 349.492 7.72135 348.633 7.46094C347.773 7.17448 346.732 7.03125 345.508 7.03125C344.336 7.03125 343.19 7.22656 342.07 7.61719C340.977 7.98177 340 8.55469 339.141 9.33594C338.307 10.0911 337.63 11.0547 337.109 12.2266C336.615 13.3984 336.367 14.7656 336.367 16.3281V22.6562H354.453V28.5156H336.367V49.4141H349.648V55.2734H319.375V49.4141ZM355.508 14.2969H364.023V13.7891C364.023 12.5651 363.893 11.3932 363.633 10.2734C363.372 9.1276 363.021 8.04688 362.578 7.03125C362.135 6.01562 361.615 5.07812 361.016 4.21875C360.443 3.35938 359.831 2.59115 359.18 1.91406C360.221 2.4349 361.146 3.16406 361.953 4.10156C362.76 5.03906 363.424 6.05469 363.945 7.14844C364.492 8.21615 364.896 9.28385 365.156 10.3516C365.443 11.4193 365.586 12.3438 365.586 13.125V15.7812H355.508V14.2969ZM339.102 19.0625C339.102 17.2135 339.284 15.6771 339.648 14.4531C340.013 13.2292 340.508 12.2656 341.133 11.5625C341.758 10.8333 342.474 10.3255 343.281 10.0391C344.115 9.7526 344.987 9.60938 345.898 9.60938C346.549 9.60938 347.135 9.6875 347.656 9.84375C348.203 10 348.672 10.1953 349.062 10.4297C349.453 10.6641 349.779 10.9245 350.039 11.2109C350.299 11.4714 350.495 11.7318 350.625 11.9922C349.661 11.4974 348.724 11.2109 347.812 11.1328C346.901 11.0286 346.237 10.9766 345.82 10.9766C345.169 10.9766 344.531 11.0807 343.906 11.2891C343.307 11.4974 342.76 11.901 342.266 12.5C341.797 13.0729 341.406 13.8932 341.094 14.9609C340.807 16.0026 340.664 17.3828 340.664 19.1016V19.9219H339.102V19.0625ZM339.102 31.25H357.266V24.8438H358.828V32.7344H340.664V47.0703H339.102V31.25ZM321.719 31.25H326.406V32.7344H321.719V31.25ZM352.461 58.0078V51.6016H354.023V59.4922H321.719V58.0078H352.461Z" fill="#F3F3F3"/>
<path d="M369.336 37.0312C369.336 34.1927 369.948 31.5234 371.172 29.0234C372.396 26.4974 374.102 24.3099 376.289 22.4609C378.503 20.5859 381.146 19.1146 384.219 18.0469C387.292 16.9531 390.664 16.4062 394.336 16.4062C398.19 16.4062 401.628 16.9271 404.648 17.9688C407.695 18.9844 410.26 20.4036 412.344 22.2266C414.453 24.0495 416.055 26.2109 417.148 28.7109C418.268 31.2109 418.828 33.9323 418.828 36.875C418.828 39.7135 418.216 42.3307 416.992 44.7266C415.794 47.1224 414.076 49.1927 411.836 50.9375C409.622 52.6562 406.953 54.0104 403.828 55C400.729 55.9635 397.266 56.4453 393.438 56.4453C389.818 56.4453 386.523 55.9115 383.555 54.8438C380.612 53.75 378.086 52.3047 375.977 50.5078C373.867 48.7109 372.227 46.6536 371.055 44.3359C369.909 41.9922 369.336 39.5573 369.336 37.0312ZM375.469 53.4766C377.995 55.2995 380.781 56.7057 383.828 57.6953C386.901 58.6849 390.365 59.1797 394.219 59.1797C397.812 59.1797 401.263 58.6849 404.57 57.6953C407.878 56.7318 410.794 55.2995 413.32 53.3984C415.846 51.4974 417.865 49.1667 419.375 46.4062C420.885 43.6198 421.641 40.4427 421.641 36.875C421.641 35.1302 421.393 33.3724 420.898 31.6016C420.43 29.8047 419.753 28.0859 418.867 26.4453C418.008 24.8047 416.953 23.2812 415.703 21.875C414.453 20.4427 413.06 19.2318 411.523 18.2422C413.268 19.0234 414.857 20.0521 416.289 21.3281C417.747 22.6042 418.984 24.0625 420 25.7031C421.016 27.3177 421.797 29.0755 422.344 30.9766C422.917 32.8776 423.203 34.8438 423.203 36.875C423.203 39.4271 422.839 41.7969 422.109 43.9844C421.38 46.1458 420.365 48.112 419.062 49.8828C417.786 51.6276 416.25 53.1771 414.453 54.5312C412.682 55.8854 410.729 57.0052 408.594 57.8906C406.458 58.8021 404.18 59.4922 401.758 59.9609C399.362 60.4297 396.914 60.6641 394.414 60.6641C392.331 60.6641 390.339 60.4948 388.438 60.1562C386.536 59.8438 384.766 59.375 383.125 58.75C381.51 58.151 380.052 57.4089 378.75 56.5234C377.448 55.638 376.354 54.6224 375.469 53.4766ZM378.008 36.875C378.008 38.8802 378.385 40.7161 379.141 42.3828C379.922 44.0234 381.016 45.4427 382.422 46.6406C383.828 47.8125 385.508 48.724 387.461 49.375C389.44 50.026 391.628 50.3516 394.023 50.3516C396.445 50.3516 398.646 50.026 400.625 49.375C402.604 48.6979 404.31 47.7734 405.742 46.6016C407.174 45.4036 408.281 43.9844 409.062 42.3438C409.844 40.6771 410.234 38.8542 410.234 36.875C410.234 34.9219 409.844 33.0859 409.062 31.3672C408.281 29.6224 407.188 28.099 405.781 26.7969C404.375 25.4688 402.682 24.4271 400.703 23.6719C398.75 22.8906 396.589 22.5 394.219 22.5C391.745 22.5 389.505 22.8776 387.5 23.6328C385.521 24.362 383.828 25.3776 382.422 26.6797C381.016 27.9557 379.922 29.4661 379.141 31.2109C378.385 32.9557 378.008 34.8438 378.008 36.875ZM380.742 37.0312C380.742 35.3906 381.068 33.8542 381.719 32.4219C382.37 30.9635 383.281 29.7135 384.453 28.6719C385.651 27.6042 387.07 26.7708 388.711 26.1719C390.378 25.5469 392.214 25.2344 394.219 25.2344C395.495 25.2344 396.732 25.3776 397.93 25.6641C399.128 25.9245 400.234 26.3151 401.25 26.8359C402.266 27.3568 403.164 27.9948 403.945 28.75C404.727 29.4792 405.352 30.3125 405.82 31.25C404.102 29.6875 402.305 28.5417 400.43 27.8125C398.581 27.0833 396.484 26.7188 394.141 26.7188C392.448 26.7188 390.885 26.9922 389.453 27.5391C388.021 28.0859 386.771 28.8281 385.703 29.7656C384.635 30.7031 383.802 31.7969 383.203 33.0469C382.604 34.2969 382.305 35.625 382.305 37.0312C382.305 38.2031 382.448 39.2969 382.734 40.3125C383.021 41.3281 383.503 42.2786 384.18 43.1641C384.883 44.0234 385.807 44.8047 386.953 45.5078C388.099 46.2109 389.531 46.8359 391.25 47.3828C389.688 47.2786 388.255 46.9531 386.953 46.4062C385.677 45.8333 384.57 45.0911 383.633 44.1797C382.721 43.2682 382.005 42.2005 381.484 40.9766C380.99 39.7526 380.742 38.4375 380.742 37.0312Z" fill="#F3F3F3"/>
<path d="M432.422 49.4141H441.016V6.64062H432.422V0.78125H449.414V49.4141H458.008V55.2734H432.422V49.4141ZM452.148 2.77344H453.711V47.0703H452.148V2.77344ZM434.766 9.375H439.375V10.8594H434.766V9.375ZM460.82 58.0078V51.6016H462.383V59.4922H434.766V58.0078H460.82Z" fill="#F3F3F3"/>
<path d="M478.242 0.0390625H487.812V7.85156H478.242V0.0390625ZM480.586 10.5859H490.625V2.22656H492.188V12.0703H480.586V10.5859ZM470.039 49.4141H480.586L479.414 24.2188H470.039V17.5781H487.812V49.4141H496.797V55.2734H470.039V49.4141ZM490.547 19.5703H492.109V47.0703H490.547V19.5703ZM472.383 26.9531H477.773V28.4375H472.383V26.9531ZM499.609 58.0078V51.6016H501.172V59.4922H472.383V58.0078H499.609Z" fill="#F3F3F3"/>
<path d="M506.68 37.0312C506.68 34.1927 507.292 31.5234 508.516 29.0234C509.74 26.4974 511.445 24.3099 513.633 22.4609C515.846 20.5859 518.49 19.1146 521.562 18.0469C524.635 16.9531 528.008 16.4062 531.68 16.4062C535.534 16.4062 538.971 16.9271 541.992 17.9688C545.039 18.9844 547.604 20.4036 549.688 22.2266C551.797 24.0495 553.398 26.2109 554.492 28.7109C555.612 31.2109 556.172 33.9323 556.172 36.875C556.172 39.7135 555.56 42.3307 554.336 44.7266C553.138 47.1224 551.419 49.1927 549.18 50.9375C546.966 52.6562 544.297 54.0104 541.172 55C538.073 55.9635 534.609 56.4453 530.781 56.4453C527.161 56.4453 523.867 55.9115 520.898 54.8438C517.956 53.75 515.43 52.3047 513.32 50.5078C511.211 48.7109 509.57 46.6536 508.398 44.3359C507.253 41.9922 506.68 39.5573 506.68 37.0312ZM512.812 53.4766C515.339 55.2995 518.125 56.7057 521.172 57.6953C524.245 58.6849 527.708 59.1797 531.562 59.1797C535.156 59.1797 538.607 58.6849 541.914 57.6953C545.221 56.7318 548.138 55.2995 550.664 53.3984C553.19 51.4974 555.208 49.1667 556.719 46.4062C558.229 43.6198 558.984 40.4427 558.984 36.875C558.984 35.1302 558.737 33.3724 558.242 31.6016C557.773 29.8047 557.096 28.0859 556.211 26.4453C555.352 24.8047 554.297 23.2812 553.047 21.875C551.797 20.4427 550.404 19.2318 548.867 18.2422C550.612 19.0234 552.201 20.0521 553.633 21.3281C555.091 22.6042 556.328 24.0625 557.344 25.7031C558.359 27.3177 559.141 29.0755 559.688 30.9766C560.26 32.8776 560.547 34.8438 560.547 36.875C560.547 39.4271 560.182 41.7969 559.453 43.9844C558.724 46.1458 557.708 48.112 556.406 49.8828C555.13 51.6276 553.594 53.1771 551.797 54.5312C550.026 55.8854 548.073 57.0052 545.938 57.8906C543.802 58.8021 541.523 59.4922 539.102 59.9609C536.706 60.4297 534.258 60.6641 531.758 60.6641C529.674 60.6641 527.682 60.4948 525.781 60.1562C523.88 59.8438 522.109 59.375 520.469 58.75C518.854 58.151 517.396 57.4089 516.094 56.5234C514.792 55.638 513.698 54.6224 512.812 53.4766ZM515.352 36.875C515.352 38.8802 515.729 40.7161 516.484 42.3828C517.266 44.0234 518.359 45.4427 519.766 46.6406C521.172 47.8125 522.852 48.724 524.805 49.375C526.784 50.026 528.971 50.3516 531.367 50.3516C533.789 50.3516 535.99 50.026 537.969 49.375C539.948 48.6979 541.654 47.7734 543.086 46.6016C544.518 45.4036 545.625 43.9844 546.406 42.3438C547.188 40.6771 547.578 38.8542 547.578 36.875C547.578 34.9219 547.188 33.0859 546.406 31.3672C545.625 29.6224 544.531 28.099 543.125 26.7969C541.719 25.4688 540.026 24.4271 538.047 23.6719C536.094 22.8906 533.932 22.5 531.562 22.5C529.089 22.5 526.849 22.8776 524.844 23.6328C522.865 24.362 521.172 25.3776 519.766 26.6797C518.359 27.9557 517.266 29.4661 516.484 31.2109C515.729 32.9557 515.352 34.8438 515.352 36.875ZM518.086 37.0312C518.086 35.3906 518.411 33.8542 519.062 32.4219C519.714 30.9635 520.625 29.7135 521.797 28.6719C522.995 27.6042 524.414 26.7708 526.055 26.1719C527.721 25.5469 529.557 25.2344 531.562 25.2344C532.839 25.2344 534.076 25.3776 535.273 25.6641C536.471 25.9245 537.578 26.3151 538.594 26.8359C539.609 27.3568 540.508 27.9948 541.289 28.75C542.07 29.4792 542.695 30.3125 543.164 31.25C541.445 29.6875 539.648 28.5417 537.773 27.8125C535.924 27.0833 533.828 26.7188 531.484 26.7188C529.792 26.7188 528.229 26.9922 526.797 27.5391C525.365 28.0859 524.115 28.8281 523.047 29.7656C521.979 30.7031 521.146 31.7969 520.547 33.0469C519.948 34.2969 519.648 35.625 519.648 37.0312C519.648 38.2031 519.792 39.2969 520.078 40.3125C520.365 41.3281 520.846 42.2786 521.523 43.1641C522.227 44.0234 523.151 44.8047 524.297 45.5078C525.443 46.2109 526.875 46.8359 528.594 47.3828C527.031 47.2786 525.599 46.9531 524.297 46.4062C523.021 45.8333 521.914 45.0911 520.977 44.1797C520.065 43.2682 519.349 42.2005 518.828 40.9766C518.333 39.7526 518.086 38.4375 518.086 37.0312Z" fill="#F3F3F3"/>
<path d="M570.547 49.0234H581.484V12.8906H570.938V6.64062H601.211V12.8906H590.352V49.0234H600.82V55.2734H570.547V49.0234ZM593.164 15.625H603.984V8.59375H605.547V17.1094H594.727V46.6797H593.164V15.625ZM573.281 15.625H579.844V17.1094H573.281V15.625ZM603.633 58.0078V51.2109H605.195V59.4922H572.891V58.0078H603.633Z" fill="#F0CD31"/>
</svg>
