<svg width="400" height="72" viewBox="0 0 346 63" fill="none" xmlns="http://www.w3.org/2000/svg">
<g filter="url(#filter0_d_80_5)">
<path d="M35.64 34.4H16.92L10.04 54H4.20001L22.84 0.879992H29.72L48.36 54H42.52L35.64 34.4ZM33.88 29.28L26.28 7.51999L18.68 29.28H33.88Z" fill="#F0CD31"/>
<path d="M70.4269 0.799994C73.5202 0.799994 76.3736 1.57333 78.9869 3.11999C81.6002 4.66666 83.6802 6.74666 85.2269 9.35999C86.7736 11.9733 87.5469 14.8 87.5469 17.84C87.5469 20.88 86.7736 23.7067 85.2269 26.32C83.6802 28.9333 81.6002 31.0133 78.9869 32.56C76.3736 34.0533 73.5202 34.8 70.4269 34.8H61.0669V54H55.5469V0.799994H70.4269ZM70.4269 29.44C72.5069 29.44 74.4269 28.9333 76.1869 27.92C78.0002 26.8533 79.4136 25.44 80.4269 23.68C81.4936 21.8667 82.0269 19.92 82.0269 17.84C82.0269 15.76 81.4936 13.84 80.4269 12.08C79.4136 10.32 78.0002 8.93333 76.1869 7.91999C74.4269 6.85333 72.5069 6.31999 70.4269 6.31999H61.0669V29.44H70.4269Z" fill="#F0CD31"/>
<path d="M111.003 54.4C107.376 54.4 103.989 53.4933 100.843 51.68C97.7492 49.8667 95.2958 47.4133 93.4825 44.32C91.6692 41.1733 90.7625 37.7867 90.7625 34.16C90.7625 30.48 91.6692 27.0933 93.4825 24C95.2958 20.8533 97.7492 18.3733 100.843 16.56C103.989 14.6933 107.376 13.76 111.003 13.76C114.683 13.76 118.069 14.6933 121.163 16.56C124.309 18.3733 126.789 20.8533 128.603 24C130.469 27.0933 131.403 30.48 131.403 34.16C131.403 37.7867 130.469 41.1733 128.603 44.32C126.789 47.4133 124.309 49.8667 121.163 51.68C118.069 53.4933 114.683 54.4 111.003 54.4ZM111.003 49.04C113.723 49.04 116.203 48.3733 118.443 47.04C120.736 45.7067 122.549 43.8933 123.883 41.6C125.216 39.3067 125.883 36.8267 125.883 34.16C125.883 31.44 125.216 28.9333 123.883 26.64C122.549 24.3467 120.736 22.5333 118.443 21.2C116.203 19.8667 113.723 19.2 111.003 19.2C108.336 19.2 105.856 19.8667 103.563 21.2C101.323 22.5333 99.5358 24.3467 98.2025 26.64C96.8692 28.9333 96.2025 31.44 96.2025 34.16C96.2025 36.8267 96.8692 39.3067 98.2025 41.6C99.5358 43.8933 101.323 45.7067 103.563 47.04C105.856 48.3733 108.336 49.04 111.003 49.04Z" fill="#F3F3F3"/>
<path d="M156.914 19.92C155.687 19.3867 154.46 19.12 153.234 19.12C150.727 19.12 148.567 20.0267 146.754 21.84C144.94 23.6533 144.034 25.8133 144.034 28.32V54H138.594V28.32C138.594 25.44 139.34 22.8267 140.834 20.48C142.38 18.08 144.38 16.2933 146.834 15.12L146.994 15.04C148.967 14.1333 151.047 13.68 153.234 13.68C156.647 13.68 159.687 14.72 162.354 16.8L156.914 19.92Z" fill="#F3F3F3"/>
<path d="M186.75 19.44H180.11V54H174.59V19.44H167.95V14H174.59V0.799994H180.11V14H186.75V19.44Z" fill="#F3F3F3"/>
<path d="M212.784 5.83999C210.438 5.83999 208.384 6.63999 206.624 8.23999C204.918 9.78666 203.931 11.7067 203.664 14H212.784V19.44H203.584V54H198.144V19.44H193.984V14H198.144C198.304 11.4933 199.051 9.19999 200.384 7.11999C201.771 5.03999 203.531 3.41333 205.664 2.23999C207.851 1.01333 210.224 0.399994 212.784 0.399994V5.83999Z" fill="#F3F3F3"/>
<path d="M235.456 54.4C231.829 54.4 228.442 53.4933 225.296 51.68C222.202 49.8667 219.749 47.4133 217.936 44.32C216.122 41.1733 215.216 37.7867 215.216 34.16C215.216 30.48 216.122 27.0933 217.936 24C219.749 20.8533 222.202 18.3733 225.296 16.56C228.442 14.6933 231.829 13.76 235.456 13.76C239.136 13.76 242.522 14.6933 245.616 16.56C248.762 18.3733 251.242 20.8533 253.056 24C254.922 27.0933 255.856 30.48 255.856 34.16C255.856 37.7867 254.922 41.1733 253.056 44.32C251.242 47.4133 248.762 49.8667 245.616 51.68C242.522 53.4933 239.136 54.4 235.456 54.4ZM235.456 49.04C238.176 49.04 240.656 48.3733 242.896 47.04C245.189 45.7067 247.002 43.8933 248.336 41.6C249.669 39.3067 250.336 36.8267 250.336 34.16C250.336 31.44 249.669 28.9333 248.336 26.64C247.002 24.3467 245.189 22.5333 242.896 21.2C240.656 19.8667 238.176 19.2 235.456 19.2C232.789 19.2 230.309 19.8667 228.016 21.2C225.776 22.5333 223.989 24.3467 222.656 26.64C221.322 28.9333 220.656 31.44 220.656 34.16C220.656 36.8267 221.322 39.3067 222.656 41.6C223.989 43.8933 225.776 45.7067 228.016 47.04C230.309 48.3733 232.789 49.04 235.456 49.04Z" fill="#F3F3F3"/>
<path d="M268.487 0.799994V54H263.047V0.799994H268.487Z" fill="#F3F3F3"/>
<path d="M280.084 2.87999C281.044 2.87999 281.871 3.22666 282.564 3.91999C283.258 4.61333 283.604 5.43999 283.604 6.39999C283.604 7.41333 283.258 8.26666 282.564 8.95999C281.871 9.65333 281.044 9.99999 280.084 9.99999C279.071 9.99999 278.218 9.65333 277.524 8.95999C276.831 8.26666 276.484 7.41333 276.484 6.39999C276.484 5.43999 276.831 4.61333 277.524 3.91999C278.218 3.22666 279.071 2.87999 280.084 2.87999ZM282.804 14V54H277.284V14H282.804Z" fill="#F3F3F3"/>
<path d="M308.659 54.4C305.032 54.4 301.645 53.4933 298.499 51.68C295.405 49.8667 292.952 47.4133 291.139 44.32C289.325 41.1733 288.419 37.7867 288.419 34.16C288.419 30.48 289.325 27.0933 291.139 24C292.952 20.8533 295.405 18.3733 298.499 16.56C301.645 14.6933 305.032 13.76 308.659 13.76C312.339 13.76 315.725 14.6933 318.819 16.56C321.965 18.3733 324.445 20.8533 326.259 24C328.125 27.0933 329.059 30.48 329.059 34.16C329.059 37.7867 328.125 41.1733 326.259 44.32C324.445 47.4133 321.965 49.8667 318.819 51.68C315.725 53.4933 312.339 54.4 308.659 54.4ZM308.659 49.04C311.379 49.04 313.859 48.3733 316.099 47.04C318.392 45.7067 320.205 43.8933 321.539 41.6C322.872 39.3067 323.539 36.8267 323.539 34.16C323.539 31.44 322.872 28.9333 321.539 26.64C320.205 24.3467 318.392 22.5333 316.099 21.2C313.859 19.8667 311.379 19.2 308.659 19.2C305.992 19.2 303.512 19.8667 301.219 21.2C298.979 22.5333 297.192 24.3467 295.859 26.64C294.525 28.9333 293.859 31.44 293.859 34.16C293.859 36.8267 294.525 39.3067 295.859 41.6C297.192 43.8933 298.979 45.7067 301.219 47.04C303.512 48.3733 305.992 49.04 308.659 49.04Z" fill="#F3F3F3"/>
<path d="M341.69 0.799994V54H336.25V0.799994H341.69Z" fill="#F0CD31"/>
</g>
<defs>
<filter id="filter0_d_80_5" x="0.200012" y="0.399994" width="345.49" height="62" filterUnits="userSpaceOnUse" color-interpolation-filters="sRGB">
<feFlood flood-opacity="0" result="BackgroundImageFix"/>
<feColorMatrix in="SourceAlpha" type="matrix" values="0 0 0 0 0 0 0 0 0 0 0 0 0 0 0 0 0 0 127 0" result="hardAlpha"/>
<feOffset dy="4"/>
<feGaussianBlur stdDeviation="2"/>
<feComposite in2="hardAlpha" operator="out"/>
<feColorMatrix type="matrix" values="0 0 0 0 0 0 0 0 0 0 0 0 0 0 0 0 0 0 0.75 0"/>
<feBlend mode="normal" in2="BackgroundImageFix" result="effect1_dropShadow_80_5"/>
<feBlend mode="normal" in="SourceGraphic" in2="effect1_dropShadow_80_5" result="shape"/>
</filter>
</defs>
</svg>
