<svg width="21" height="20" viewBox="0 0 25 26" fill="none" xmlns="http://www.w3.org/2000/svg">
<path d="M23.1668 11.6664C22.8408 9.32006 21.7523 7.14598 20.069 5.4791C18.3858 3.81221 16.2012 2.745 13.8517 2.44184C11.5023 2.13869 9.11833 2.61641 7.0671 3.80143C5.01587 4.98645 3.41116 6.81302 2.50016 8.99977M1.8335 3.66644V8.99977H7.16683M1.8335 14.3331C2.15958 16.6795 3.24807 18.8536 4.93131 20.5204C6.61455 22.1873 8.79915 23.2545 11.1486 23.5577C13.498 23.8609 15.882 23.3831 17.9332 22.1981C19.9845 21.0131 21.5892 19.1865 22.5002 16.9998M23.1668 22.3331V16.9998H17.8335" stroke="#423600" stroke-width="3" stroke-linecap="round" stroke-linejoin="round"/>
</svg>
