<svg width="21" height="20" viewBox="0 0 25 25" fill="none" xmlns="http://www.w3.org/2000/svg">
<path d="M22.8335 11.5209C22.5125 9.2112 21.441 7.07109 19.7841 5.43025C18.1271 3.78941 15.9767 2.73887 13.6639 2.44045C11.3512 2.14204 9.0045 2.6123 6.98532 3.7788C4.96615 4.9453 3.38651 6.74333 2.48975 8.89592M1.8335 3.64592V8.89592H7.0835M1.8335 14.1459C2.15448 16.4556 3.22597 18.5957 4.88291 20.2366C6.53985 21.8774 8.69032 22.928 11.0031 23.2264C13.3158 23.5248 15.6625 23.0545 17.6817 21.888C19.7008 20.7215 21.2805 18.9235 22.1772 16.7709M22.8335 22.0209V16.7709H17.5835" stroke="#0E0E0E" stroke-width="3" stroke-linecap="round" stroke-linejoin="round"/>
</svg>
