<svg width="54" height="37" viewBox="0 0 54 37" fill="none" xmlns="http://www.w3.org/2000/svg">
<path d="M50.3332 0C49.4492 0 48.6013 0.35119 47.9762 0.976311C47.3511 1.60143 46.9999 2.44928 46.9999 3.33333V16.6667C46.9999 17.5507 46.6487 18.3986 46.0236 19.0237C45.3985 19.6488 44.5506 20 43.6666 20H11.6999L16.0332 15.7C16.6609 15.0723 17.0135 14.221 17.0135 13.3333C17.0135 12.4457 16.6609 11.5943 16.0332 10.9667C15.4056 10.339 14.5542 9.98636 13.6666 9.98636C12.7789 9.98636 11.9276 10.339 11.2999 10.9667L1.2999 20.9667C0.99643 21.2837 0.758547 21.6575 0.599899 22.0667C0.266505 22.8782 0.266505 23.7885 0.599899 24.6C0.758547 25.0092 0.99643 25.383 1.2999 25.7L11.2999 35.7C11.6098 36.0124 11.9784 36.2604 12.3846 36.4296C12.7908 36.5989 13.2265 36.686 13.6666 36.686C14.1066 36.686 14.5423 36.5989 14.9485 36.4296C15.3547 36.2604 15.7234 36.0124 16.0332 35.7C16.3457 35.3901 16.5936 35.0215 16.7629 34.6153C16.9321 34.2091 17.0192 33.7734 17.0192 33.3333C17.0192 32.8933 16.9321 32.4576 16.7629 32.0514C16.5936 31.6452 16.3457 31.2765 16.0332 30.9667L11.6999 26.6667H43.6666C46.3187 26.6667 48.8623 25.6131 50.7376 23.7377C52.613 21.8624 53.6666 19.3188 53.6666 16.6667V3.33333C53.6666 2.44928 53.3154 1.60143 52.6903 0.976311C52.0651 0.35119 51.2173 0 50.3332 0Z" fill="#F3F3F3"/>
</svg>
