<svg width="45" height="45" viewBox="0 0 45 45" fill="none" xmlns="http://www.w3.org/2000/svg">
<path d="M22.6665 30.1667L30.1665 22.6667M30.1665 22.6667L22.6665 15.1667M30.1665 22.6667H2.6665M2.6665 10.7867V10.6667C2.6665 7.86666 2.6665 6.46666 3.2115 5.39666C3.6915 4.45416 4.454 3.69166 5.3965 3.21166C6.4665 2.66666 7.8665 2.66666 10.6665 2.66666H34.6665C37.4665 2.66666 38.8665 2.66666 39.934 3.21166C40.8765 3.69166 41.6415 4.45416 42.1215 5.39666C42.6665 6.46416 42.6665 7.86416 42.6665 10.6592V34.6767C42.6665 37.4717 42.6665 38.8692 42.1215 39.9367C41.6412 40.8776 40.8755 41.6424 39.934 42.1217C38.8665 42.6667 37.469 42.6667 34.674 42.6667H10.659C7.864 42.6667 6.464 42.6667 5.3965 42.1217C4.45574 41.6423 3.69086 40.8774 3.2115 39.9367C2.6665 38.8667 2.6665 37.4667 2.6665 34.6667V34.5417" stroke="#F8F8F8" stroke-width="4" stroke-linecap="round" stroke-linejoin="round"/>
</svg>
