<svg width="34" height="38" viewBox="0 0 34 38" fill="none" xmlns="http://www.w3.org/2000/svg">
<path d="M19.5187 0.906269C18.8507 0.325956 17.9452 0 17.0012 0C16.0571 0 15.1517 0.325956 14.4837 0.906269L1.04375 12.591C0.37545 13.1723 -9.95851e-09 13.9608 0 14.7829C9.95851e-09 15.605 0.37545 16.3935 1.04375 16.9748C1.71206 17.5562 2.61847 17.8828 3.5636 17.8828C4.50872 17.8828 5.41514 17.5562 6.08344 16.9748L13.4387 10.5788L13.4387 34.409C13.4387 35.2308 13.8141 36.019 14.4822 36.6002C15.1502 37.1813 16.0564 37.5078 17.0012 37.5078C17.946 37.5078 18.8521 37.1813 19.5202 36.6002C20.1883 36.019 20.5636 35.2308 20.5636 34.409L20.5636 10.5788L27.9166 16.9748C28.2475 17.2627 28.6403 17.491 29.0727 17.6468C29.505 17.8026 29.9684 17.8828 30.4364 17.8828C30.9044 17.8828 31.3678 17.8026 31.8001 17.6468C32.2325 17.491 32.6253 17.2627 32.9562 16.9748C33.2872 16.687 33.5497 16.3453 33.7287 15.9692C33.9078 15.5931 34 15.19 34 14.7829C34 14.3758 33.9078 13.9727 33.7287 13.5967C33.5497 13.2206 33.2872 12.8788 32.9562 12.591L19.5187 0.906269Z" fill="#232323"/>
</svg>
